#!OML:ASF F:\VICON\USERDATA\INSTALL\rory3\rory3.ASF
:FULLY-SPECIFIED
:DEGREES
17
root 0.068149 17.6924 -24.469 6.35369 -1.46488 -5.07676
lowerback 17.2214 0.482365 4.55231
upperback -1.16018 1.91821 3.01259
thorax -10.9541 0.743645 0.215435
lowerneck -17.7415 -4.44608 -3.37571
upperneck 10.7081 -5.70509 3.603
head 6.34369 -2.59801 1.09646
rclavicle -8.74653e-015 -2.82274e-014
rhumerus -35.5571 14.6287 -98.5576
rradius 116.869
rwrist -28.323
rhand -18.3555 41.3856
rfingers 7.12502
rthumb 7.92722 11.5542
lclavicle -8.74653e-015 -2.82274e-014
lhumerus -56.0402 -8.48182 95.2579
lradius 103.709
lwrist 27.7416
lhand -19.5634 6.97317
lfingers 7.12502
lthumb 6.76128 36.8452
rfemur -6.9693 7.20121 34.5992
rtibia 40.5686
rfoot -17.3487 -12.703
rtoes -13.9758
lfemur -41.7378 6.73285 -11.9727
ltibia 98.9714
lfoot 11.4598 -14.6633
ltoes -8.58512
18
root 0.104302 17.7947 -23.9182 6.7065 -1.93803 -5.0575
lowerback 16.1002 0.942629 4.86093
upperback -1.1553 2.48531 2.77823
thorax -10.2623 1.00187 -0.340529
lowerneck -17.9669 -4.64982 -3.36512
upperneck 10.9241 -6.01755 3.82525
head 6.46854 -2.72413 1.1253
rclavicle -7.95139e-015 -4.8901e-014
rhumerus -35.1434 14.8191 -98.497
rradius 118.375
rwrist -27.4683
rhand -18.6947 41.6234
rfingers 7.12502
rthumb 7.59979 11.78
lclavicle -7.95139e-015 -4.8901e-014
lhumerus -56.8328 -8.07084 94.7847
lradius 104.2
lwrist 27.3878
lhand -19.6631 6.10438
lfingers 7.12502
lthumb 6.66508 35.9795
rfemur -5.02733 7.36007 34.2132
rtibia 39.2908
rfoot -14.7136 -11.2301
rtoes -16.3725
lfemur -42.745 7.02341 -12.6938
ltibia 96.1134
lfoot 10.3418 -13.849
ltoes -6.20571
19
root 0.131369 17.9316 -23.3687 6.74432 -1.76722 -4.91928
lowerback 15.5691 1.25325 5.1448
upperback -1.16573 2.88645 2.51037
thorax -9.92401 1.17766 -0.873034
lowerneck -18.411 -4.89149 -3.02086
upperneck 11.0489 -6.41352 3.77438
head 6.58297 -2.89662 0.999901
rclavicle -3.47873e-014 -3.49861e-014
rhumerus -34.8198 14.693 -98.2075
rradius 119.738
rwrist -27.1572
rhand -18.4574 42.1697
rfingers 7.12502
rthumb 7.82887 12.3347
lclavicle -3.47873e-014 -3.49861e-014
lhumerus -57.5733 -7.85642 94.2583
lradius 104.605
lwrist 27.3794
lhand -19.8645 5.48383
lfingers 7.12502
lthumb 6.47064 35.365
rfemur -2.9086 6.96807 33.7653
rtibia 37.8412
rfoot -11.5968 -9.70983
rtoes -17.8782
lfemur -43.198 6.53094 -13.388
ltibia 92.8368
lfoot 8.21428 -13.259
ltoes -8.62655
20
root 0.155271 18.0606 -22.8311 6.57786 -1.38139 -4.82556
lowerback 15.8834 -0.0669063 1.94207
upperback -3.35454 0.96398 5.31746
thorax -12.7928 0.569386 4.5662
lowerneck -9.35011 -2.75779 -6.77491
upperneck 8.61893 -3.12309 3.2833
head 4.26512 -1.57904 1.90436
rclavicle 9.54166e-015 -6.04305e-014
rhumerus -40.7944 21.5219 -98.0739
rradius 121.333
rwrist -28.9959
rhand -16.3879 45.4162
rfingers 7.12502
rthumb 9.82591 15.6654
lclavicle 9.54166e-015 -6.04305e-014
lhumerus -63.7182 1.34991 95.2336
lradius 105.786
lwrist 26.8383
lhand -19.7818 4.73556
lfingers 7.12502
lthumb 6.55051 34.6143
rfemur -0.693418 6.43266 33.3928
rtibia 36.2156
rfoot -7.90727 -8.15705
rtoes -18.8588
lfemur -43.3921 5.86147 -13.9399
ltibia 89.3534
lfoot 6.03409 -12.7604
ltoes -13.7835
21
root 0.174444 18.1889 -22.2933 6.29359 -0.986459 -4.64138
lowerback 14.6743 1.5329 5.20953
upperback -1.20117 3.20066 2.45474
thorax -9.42629 1.33783 -1.01197
lowerneck -16.9885 -5.06224 -2.91329
upperneck 9.84474 -6.66015 3.77338
head 5.96826 -3.04583 0.998185
rclavicle 3.21037e-014 7.55382e-015
rhumerus -34.8724 15.6866 -97.446
rradius 121.994
rwrist -25.7348
rhand -18.3071 45.6179
rfingers 7.12502
rthumb 7.97396 15.7883
lclavicle 3.21037e-014 7.55382e-015
lhumerus -59.7307 -5.93158 93.2539
lradius 105.542
lwrist 27.9408
lhand -19.9491 4.55825
lfingers 7.12502
lthumb 6.38891 34.4419
rfemur 1.7105 5.95356 32.9302
rtibia 34.3349
rfoot -3.66468 -6.58636
rtoes -18.7898
lfemur -43.3965 5.10243 -14.5564
ltibia 85.508
lfoot 5.27041 -12.1833
ltoes -16.3848
22
root 0.195259 18.322 -21.7451 5.91179 -0.431295 -4.38094
lowerback 13.9096 1.57586 5.45424
upperback -0.761327 3.19211 2.19836
thorax -8.47766 1.34925 -1.38828
lowerneck -17.3159 -5.26797 -2.68946
upperneck 9.57723 -6.9872 3.89286
head 5.94386 -3.18459 0.962131
rclavicle 1.78906e-014 1.59028e-015
rhumerus -34.5399 16.4104 -97.3338
rradius 122.762
rwrist -22.9756
rhand -20.102 45.8694
rfingers 7.12502
rthumb 6.24133 15.9813
lclavicle 1.78906e-014 1.59028e-015
lhumerus -59.9563 -5.31204 92.3633
lradius 105.845
lwrist 28.4768
lhand -20.8376 5.0205
lfingers 7.12502
lthumb 5.53115 34.9283
rfemur 4.20445 5.20743 32.3278
rtibia 32.3442
rfoot 1.36097 -4.91896
rtoes -18.1207
lfemur -43.0828 4.12454 -15.1974
ltibia 81.2531
lfoot 5.44865 -11.5181
ltoes -17.7943
